<?xml version="1.0" encoding="utf-8"?>
<!-- Generator: Adobe Illustrator 27.5.0, SVG Export Plug-In . SVG Version: 6.00 Build 0)  -->
<svg version="1.1" id="Layer_1" xmlns="http://www.w3.org/2000/svg" xmlns:xlink="http://www.w3.org/1999/xlink" x="0px" y="0px"
	 viewBox="0 0 1920 1080" style="enable-background:new 0 0 1920 1080;" xml:space="preserve">
<style type="text/css">
	.st0{fill:url(#SVGID_1_);}
	.st1{fill:url(#SVGID_00000121241902190028518220000000441223392527643552_);}
	.st2{fill:url(#SVGID_00000180342948661487042090000017154162810907536564_);}
	.st3{fill:url(#SVGID_00000101790818428096932950000003064568229454356390_);}
	.st4{fill:#FFFFFF;}
</style>
<g>
	
		<linearGradient id="SVGID_1_" gradientUnits="userSpaceOnUse" x1="-692.819" y1="529.5602" x2="12.823" y2="529.5602" gradientTransform="matrix(-0.9581 -0.2864 0.2864 -0.9581 455.5441 938.3269)">
		<stop  offset="0" style="stop-color:#F9A669"/>
		<stop  offset="1" style="stop-color:#EE2961"/>
	</linearGradient>
	<path class="st0" d="M1220.76,608.83c-45.93-67.83-62.11-151.52-44.75-231.59c8.72-40.23-2.65-83.91-34.02-115.1
		c-46.92-46.66-121.58-48.44-170.56-5.38l-0.03-0.03c-69.02,60.51-161.93,86.02-252.15,69.38c-0.15-0.03-0.36-0.06-0.51-0.09
		c-31.45-5.84-65.16,3.44-89.44,27.84c-34.3,34.49-38.29,87.67-12.14,126.51c39.37,58.63,56.78,129.2,49.24,199.39
		c-4.15,38.57,8.62,78.62,38.25,108.09c36.44,36.25,88.71,46.91,134.44,32.03c0.39-0.15,0.75-0.27,1.11-0.39
		c66.1-20.89,137.42-18.27,201.79,7.42c0.54,0.18,1.08,0.42,1.59,0.62l0-0.03c53.27,21.63,116.58,10.81,159.65-32.49
		C1253.72,744.26,1259.5,665.93,1220.76,608.83z"/>
	
		<linearGradient id="SVGID_00000155846479059175313940000000334902593621670560_" gradientUnits="userSpaceOnUse" x1="548.5464" y1="245.3716" x2="1314.8459" y2="245.3716" gradientTransform="matrix(0.8665 0.4992 -0.4992 0.8665 262.7332 -90.5269)">
		<stop  offset="0" style="stop-color:#F9A669"/>
		<stop  offset="1" style="stop-color:#EE2961"/>
	</linearGradient>
	<path style="fill:url(#SVGID_00000155846479059175313940000000334902593621670560_);" d="M616.93,620.26
		c28.7,19.32,65.41,24.66,92.78,45.82c34.25,26.49,46.78,71.57,59.91,112.83c13.13,41.26,32.53,85.76,72.24,103.01
		c41.84,18.17,90.79-1.24,127.36-28.5c36.57-27.26,67.59-62.67,108.5-82.85c44.74-22.07,96.37-23.56,145.4-32.78
		c49.03-9.22,101.06-30.46,122.97-75.28c23.91-48.91,1.8-110.84-38.97-146.92c-40.77-36.09-95.8-51.22-149.52-60.11
		c-31.96-5.29-67.2-10.29-88.64-34.57c-22.08-24.99-22.02-61.83-31.88-93.68c-17.49-56.48-71.82-99.55-130.79-103.71
		c-58.98-4.16-118.81,30.87-144.05,84.33c-13.84,29.3-18.77,64.23-42.1,86.73c-15.94,15.37-38.04,22.32-59.54,27.58
		c-21.5,5.26-43.78,9.53-62.68,21.05C536.92,480.39,566.89,586.58,616.93,620.26z"/>
	
		<linearGradient id="SVGID_00000017496324743043440990000014594512364767760824_" gradientUnits="userSpaceOnUse" x1="1183.8247" y1="328.7531" x2="1246.025" y2="328.7531">
		<stop  offset="0" style="stop-color:#F9A669"/>
		<stop  offset="1" style="stop-color:#EE2961"/>
	</linearGradient>
	<circle style="fill:url(#SVGID_00000017496324743043440990000014594512364767760824_);" cx="1214.92" cy="328.75" r="31.1"/>
	
		<linearGradient id="SVGID_00000142890859014474885950000015598560103352950935_" gradientUnits="userSpaceOnUse" x1="609.837" y1="755.4712" x2="640.9369" y2="755.4712">
		<stop  offset="0" style="stop-color:#F9A669"/>
		<stop  offset="1" style="stop-color:#EE2961"/>
	</linearGradient>
	<path style="fill:url(#SVGID_00000142890859014474885950000015598560103352950935_);" d="M640.94,755.47
		c0,8.59-6.96,15.55-15.55,15.55s-15.55-6.96-15.55-15.55s6.96-15.55,15.55-15.55S640.94,746.88,640.94,755.47z"/>
</g>
<g>
	<path class="st4" d="M758.56,626.21c-13.5,0-23.07-2.93-28.73-8.79c-5.66-5.85-8.48-15.33-8.48-28.42v-21.85v-21.7
		c0-13.19,2.83-22.71,8.48-28.57c5.66-5.85,15.23-8.79,28.73-8.79h14.88h14.88c13.4,0,22.94,2.93,28.65,8.79
		c5.7,5.86,8.56,15.38,8.56,28.57v21.7V589c0,15.55-4.07,26.04-12.2,31.45c2.48,2.86,5.16,4.58,8.04,5.17l-7,14.62
		c-13.4-2.27-22.77-6.94-28.13-14.03h-12.8H758.56z M766,581.92v2.36c0,4.43,0.52,7.6,1.56,9.52c1.04,1.92,3,2.88,5.88,2.88
		c2.88,0,4.84-0.96,5.88-2.88c1.04-1.92,1.56-5.09,1.56-9.52v-2.36v-29.53v-2.21c0-4.43-0.52-7.63-1.56-9.6
		c-1.04-1.97-3-2.95-5.88-2.95c-2.88,0-4.84,0.99-5.88,2.95c-1.04,1.97-1.56,5.17-1.56,9.6v2.21V581.92z"/>
	<path class="st4" d="M949.07,589c0,13.09-2.85,22.57-8.56,28.42c-5.71,5.86-15.26,8.79-28.65,8.79h-14.88h-14.88
		c-13.4,0-22.92-2.93-28.58-8.79c-5.66-5.85-8.48-15.33-8.48-28.42v-80.91h44.5v73.82v2.36c0,4.43,0.52,7.6,1.56,9.52
		s3,2.88,5.88,2.88c2.88,0,4.84-0.96,5.88-2.88s1.56-5.09,1.56-9.52v-2.36v-73.82h44.65V589z"/>
	<path class="st4" d="M1016.19,626.21h-14.88h-29.62v-29.38v-88.44h44.5v29.38v14.76v29.53v14.76V626.21z"/>
	<path class="st4" d="M1138.83,508.09v29.53l-52.09,59.06h52.09v29.53h-104.18v-29.53l52.09-59.06h-52.09v-29.53H1138.83z"/>
</g>
<g>
	<path class="st4" d="M1010.22,671.71c-4.28,0-7.32-0.94-9.15-2.83s-2.73-4.95-2.73-9.19v-6.98v-6.98c0-4.21,0.91-7.26,2.73-9.15
		c1.82-1.88,4.87-2.83,9.15-2.83h4.75h4.75c4.28,0,7.32,0.94,9.15,2.83c1.82,1.88,2.73,4.93,2.73,9.15v2.28h-14.25v-0.76
		c0-1.43-0.17-2.45-0.5-3.06s-0.96-0.93-1.88-0.93s-1.54,0.31-1.88,0.93c-0.33,0.62-0.5,1.64-0.5,3.06v0.76v4.7v4.75v0.76
		c0,1.42,0.17,2.45,0.5,3.06c0.33,0.62,0.96,0.93,1.88,0.93s1.54-0.31,1.88-0.93c0.33-0.62,0.5-1.64,0.5-3.06v-0.76h-2.38v-4.75
		h2.38h8.41h5.84v6.98c0,4.25-0.91,7.31-2.73,9.19s-4.87,2.83-9.15,2.83h-4.75H1010.22z"/>
	<path class="st4" d="M1057.3,633.75l9.5,38.01h-11.88l-0.9-4.75h-7.65l-0.95,4.75h-11.88l9.5-38.01h7.13H1057.3z M1048.23,657.56
		h3.85l-1.8-9.22l-0.14-1.14l-0.1,1.14L1048.23,657.56z"/>
	<path class="st4" d="M1088.09,646.44l0.24-0.76l4.51-11.92h14.21v38.01h-14.21v-12.68l-0.24,0.76l-4.51,11.92l-4.51-11.92
		l-0.24-0.76v12.68h-14.21v-38.01h14.21l4.51,11.92L1088.09,646.44z"/>
	<path class="st4" d="M1129.56,671.76h-4.75h-9.5v-9.5v-28.51h23.75v9.5h-9.5v4.75h9.5v9.5h-9.5v4.75h9.5v9.5H1129.56z"/>
</g>
</svg>
